<svg xmlns="http://www.w3.org/2000/svg" xmlns:xlink="http://www.w3.org/1999/xlink" id="Layer_1" x="0px" y="0px" viewBox="0 0 4000 4000" style="enable-background:new 0 0 4000 4000;" xml:space="preserve">
<style type="text/css">
	.st0{fill:#D3A72A;}
	.st1{fill:#B8842C;}
	.st2{fill:none;}
	.st3{fill:#273E88;}
</style>
<polygon class="st0" points="695,2166 695,1466 1522,2166 "></polygon>
<polygon class="st1" points="1522,2153.8 1522,1479 1124.4,1816.4 "></polygon>
<polygon class="st0" points="2572.7,1466 2572.7,2166 3309,2166 "></polygon>
<g id="XMLID_1_">
	<g>
		<polygon class="st1" points="3309,1466 2947,1803 2585,1466   "></polygon>
	</g>
	<g>
	</g>
</g>
<polygon class="st0" points="1631,2166 2458,2166 2044.5,1466 "></polygon>
<g>
	<rect x="695" y="2321.8" class="st2" width="2701" height="151.6"></rect>
	<path class="st3" d="M790,2419.8l-0.1-55.4l-27.2,45.7h-9.6l-27.1-44.5v54.3H706v-92.4h17.7l34.6,57.4l34.1-57.4h17.6l0.3,92.4H790   z"></path>
	<path class="st3" d="M963.2,2400h-42.9l-8.2,19.8h-21.9l41.2-92.4h21.1l41.3,92.4h-22.4L963.2,2400z M956.5,2383.7l-14.7-35.4   l-14.7,35.4H956.5z"></path>
	<path class="st3" d="M1112.5,2387v32.7h-21.4v-33l-35.8-59.4h22.7l24.7,41.1l24.7-41.1h21L1112.5,2387z"></path>
	<path class="st3" d="M1282.9,2400H1240l-8.2,19.8h-21.9l41.2-92.4h21.1l41.3,92.4h-22.4L1282.9,2400z M1276.2,2383.7l-14.7-35.4   l-14.7,35.4H1276.2z"></path>
	<path class="st3" d="M1452.4,2419.8l-17.8-25.7h-1.1h-18.6v25.7h-21.4v-92.4h40c24.7,0,40.1,12.8,40.1,33.5c0,13.9-7,24-19,29.2   l20.7,29.7H1452.4z M1432.3,2344.8h-17.4v32.2h17.4c13.1,0,19.7-6.1,19.7-16.1C1452,2350.7,1445.4,2344.8,1432.3,2344.8z"></path>
	<path class="st3" d="M1729.5,2400h-42.9l-8.2,19.8h-21.9l41.2-92.4h21.1l41.3,92.4h-22.4L1729.5,2400z M1722.7,2383.7l-14.7-35.4   l-14.7,35.4H1722.7z"></path>
	<path class="st3" d="M1840.1,2327.4h21.4v75h46.3v17.4h-67.7V2327.4z"></path>
	<path class="st3" d="M2131.5,2383.5l-12.4,12.9v23.4h-21.3v-92.4h21.3v43.2l40.9-43.2h23.8l-38.3,41.2l40.5,51.2h-24.9   L2131.5,2383.5z"></path>
	<path class="st3" d="M2350.7,2327.4v92.4h-21.4v-37.9h-42v37.9h-21.4v-92.4h21.4v36.4h42v-36.4H2350.7z"></path>
	<path class="st3" d="M2527.7,2327.4v92.4h-21.4v-37.9h-42v37.9h-21.4v-92.4h21.4v36.4h42v-36.4H2527.7z"></path>
	<path class="st3" d="M2680.8,2400h-42.9l-8.2,19.8h-21.9l41.2-92.4h21.1l41.3,92.4H2689L2680.8,2400z M2674.1,2383.7l-14.7-35.4   l-14.7,35.4H2674.1z"></path>
	<path class="st3" d="M2791.4,2327.4h21.4v75h46.3v17.4h-67.7V2327.4z"></path>
	<path class="st3" d="M3013,2402.6v17.2h-71.5v-92.4h69.8v17.2h-48.6v20.1h42.9v16.6h-42.9v21.4H3013z"></path>
	<path class="st3" d="M3172,2402.6v17.2h-71.5v-92.4h69.8v17.2h-48.6v20.1h42.9v16.6h-42.9v21.4H3172z"></path>
	<path class="st3" d="M3246.3,2407.9l11.9-14.3c5,6.7,10.6,10.2,17.2,10.2c8.6,0,13.1-5.1,13.1-15.3v-44h-32.5v-17.2h53.7v59.9   c0,22.8-11.5,34.1-33.3,34.1C3264,2421.3,3253,2416.6,3246.3,2407.9z"></path>
</g>
<g>
</g>
<g>
</g>
<g>
</g>
<g>
</g>
<g>
</g>
<g>
</g>
</svg>